<svg width="202" height="112" viewBox="0 0 202 112" fill="none" xmlns="http://www.w3.org/2000/svg">
<path d="M56 10.0903C70.9529 10.0903 72.7239 10.1474 78.6296 10.4168C84.0896 10.666 87.0543 11.5781 89.0279 12.345C91.4601 13.2427 93.6604 14.6742 95.4669 16.5341C97.3266 18.3405 98.7583 20.5407 99.6557 22.973C100.423 24.9463 101.335 27.9115 101.584 33.3714C101.853 39.2766 101.911 41.0476 101.911 56.0009C101.911 70.9539 101.853 72.7244 101.584 78.6301C101.335 84.0901 100.422 87.0548 99.6557 89.0283C98.7242 91.4438 97.2972 93.6371 95.4669 95.4674C93.6362 97.2981 91.4429 98.7247 89.0279 99.6567C87.0548 100.423 84.0896 101.336 78.6296 101.585C72.7253 101.854 70.9543 101.911 56 101.911C41.0458 101.911 39.2755 101.854 33.3708 101.585C27.9108 101.336 24.9458 100.423 22.9724 99.6567C20.54 98.7588 18.3398 97.3275 16.5334 95.4674C14.6735 93.6609 13.2421 91.4611 12.3444 89.0283C11.5774 87.0553 10.6652 84.0901 10.4162 78.6301C10.1468 72.7253 10.0896 70.9539 10.0896 56.0009C10.0896 41.0476 10.1468 39.277 10.4162 33.3714C10.6654 27.9115 11.5774 24.9466 12.3444 22.973C13.2422 20.5406 14.6738 18.3402 16.5339 16.5339C18.3402 14.674 20.5405 13.2425 22.9728 12.3448C24.9461 11.5779 27.9112 10.6656 33.3712 10.4166C39.2764 10.1472 41.0474 10.0901 56.0005 10.0901L56 10.0903ZM56.0005 0C40.7917 0 38.8841 0.0644649 32.9119 0.336995C26.9512 0.609079 22.8806 1.5556 19.3186 2.94004C15.582 4.34618 12.197 6.55046 9.39983 9.39918C6.55051 12.1962 4.34559 15.5811 2.93893 19.3179C1.5556 22.8801 0.609079 26.9507 0.338106 32.9115C0.0644648 38.8836 0 40.7913 0 56C0 71.2091 0.0644648 73.1164 0.338106 79.0888C0.610195 85.0495 1.55671 89.1203 2.94115 92.6823C4.34729 96.4189 6.55158 99.8037 9.4003 102.601C12.1975 105.449 15.5824 107.654 19.319 109.06C22.8812 110.445 26.9518 111.391 32.9124 111.663C38.8854 111.936 40.7924 112 56.0009 112C71.2096 112 73.1173 111.936 79.0897 111.663C85.0505 111.391 89.1212 110.445 92.6828 109.06C96.4031 107.621 99.7812 105.421 102.602 102.601C105.422 99.7803 107.622 96.4021 109.061 92.6823C110.445 89.1198 111.392 85.0491 111.664 79.0888C111.937 73.1159 112.001 71.2087 112.001 56C112.001 40.7915 111.937 38.8836 111.664 32.9115C111.392 26.9507 110.445 22.8801 109.061 19.3181C107.655 15.5815 105.45 12.1966 102.602 9.39941C99.8046 6.55013 96.4194 4.34537 92.6823 2.93893C89.1203 1.5556 85.0495 0.609079 79.0888 0.338107C73.1164 0.0644649 71.2091 0 56 0H56.0005Z" fill="black"/>
<path d="M56 27.2438C50.3122 27.2438 44.7525 28.9304 40.0234 32.0902C35.2943 35.25 31.6085 39.7412 29.432 44.9959C27.2555 50.2505 26.686 56.0325 27.7956 61.611C28.9052 67.1891 31.644 72.3131 35.6657 76.3348C39.6874 80.3566 44.8114 83.0954 50.3897 84.2051C55.9678 85.3144 61.7498 84.7451 67.0044 82.5685C72.2591 80.392 76.7503 76.7063 79.9101 71.9771C83.0703 67.2479 84.7569 61.688 84.7569 56.0008C84.7569 48.374 81.7268 41.0594 76.334 35.6665C70.9412 30.2735 63.6267 27.2438 56 27.2438ZM56 74.6669C52.3082 74.6669 48.699 73.5722 45.6293 71.5212C42.5596 69.4702 40.1672 66.5549 38.7543 63.144C37.3416 59.7332 36.972 55.9798 37.6922 52.3589C38.4125 48.738 40.1903 45.4119 42.8009 42.8013C45.4115 40.1907 48.7377 38.413 52.3586 37.6927C55.9794 36.9725 59.7328 37.3422 63.1437 38.755C66.5545 40.1678 69.4698 42.5604 71.5208 45.6301C73.5718 48.6998 74.6666 52.309 74.6666 56.0008C74.6666 60.9512 72.7001 65.699 69.1991 69.2C65.6987 72.7004 60.9504 74.6669 56 74.6669Z" fill="black"/>
<path d="M85.893 32.8269C89.604 32.8269 92.6126 29.8184 92.6126 26.1071C92.6126 22.3958 89.604 19.3872 85.893 19.3872C82.1816 19.3872 79.173 22.3958 79.173 26.1071C79.173 29.8184 82.1816 32.8269 85.893 32.8269Z" fill="black"/>
<path d="M187 52.25H127C124.937 52.25 123.25 53.9375 123.25 56C123.25 58.0625 124.937 59.75 127 59.75H187C189.063 59.75 190.75 58.0625 190.75 56C190.75 53.9375 189.063 52.25 187 52.25ZM127 78.5H164.5C166.563 78.5 168.25 76.8125 168.25 74.75C168.25 72.6875 166.563 71 164.5 71H127C124.937 71 123.25 72.6875 123.25 74.75C123.25 76.8125 124.937 78.5 127 78.5ZM187 33.5H127C124.937 33.5 123.25 35.1875 123.25 37.25V37.2875C123.25 39.35 124.937 41.0375 127 41.0375H187C189.063 41.0375 190.75 39.35 190.75 37.2875V37.25C190.75 35.1875 189.063 33.5 187 33.5Z" fill="black"/>
</svg>
