<svg width="24" height="24" viewBox="0 0 24 24" fill="none" xmlns="http://www.w3.org/2000/svg">
<g clip-path="url(#clip0)">
<path d="M24 12C24 5.37256 18.6274 -2.09577e-05 12 -2.09577e-05C5.37258 -2.09577e-05 0 5.37256 0 12C0 17.9895 4.38823 22.954 10.125 23.8542V15.4687H7.07813V12H10.125V9.35624C10.125 6.34873 11.9165 4.68748 14.6576 4.68748C15.9705 4.68748 17.3438 4.92186 17.3438 4.92186V7.87498H15.8306C14.3399 7.87498 13.875 8.79999 13.875 9.74898V12H17.2031L16.6711 15.4687H13.875V23.8542C19.6118 22.954 24 17.9895 24 12Z" fill="#100F0D"/>
<path d="M16.6711 15.4687L17.2031 12H13.875V9.74897C13.875 8.79999 14.3399 7.87498 15.8306 7.87498H17.3437V4.92185C17.3437 4.92185 15.9705 4.68748 14.6576 4.68748C11.9165 4.68748 10.125 6.34873 10.125 9.35623V12H7.07812V15.4687H10.125V23.8542C10.7359 23.9501 11.3621 24 12 24C12.6379 24 13.264 23.9501 13.875 23.8542V15.4687H16.6711Z" fill="white"/>
</g>
<defs>
<clipPath id="clip0">
<rect width="24" height="24" fill="white"/>
</clipPath>
</defs>
</svg>
