<svg width="24" height="24" viewBox="0 0 24 24" fill="none" xmlns="http://www.w3.org/2000/svg">
<circle cx="12" cy="12" r="12" fill="black"/>
<g clip-path="url(#clip0)">
<path d="M11.9999 5.44146C14.136 5.44146 14.389 5.44962 15.2327 5.48811C16.0127 5.52371 16.4362 5.654 16.7182 5.76356C17.0656 5.8918 17.38 6.0963 17.638 6.36199C17.9037 6.62004 18.1082 6.93436 18.2364 7.28183C18.346 7.56373 18.4763 7.98732 18.5119 8.76731C18.5503 9.6109 18.5585 9.8639 18.5585 12.0001C18.5585 14.1362 18.5503 14.3891 18.5119 15.2328C18.4763 16.0128 18.3459 16.4363 18.2364 16.7182C18.1033 17.0633 17.8995 17.3766 17.638 17.6381C17.3765 17.8996 17.0632 18.1034 16.7182 18.2365C16.4363 18.3461 16.0127 18.4764 15.2327 18.512C14.3892 18.5505 14.1362 18.5586 11.9999 18.5586C9.86364 18.5586 9.61074 18.5505 8.76721 18.512C7.98723 18.4764 7.56366 18.3461 7.28174 18.2365C6.93426 18.1083 6.61994 17.9038 6.3619 17.6381C6.0962 17.38 5.89171 17.0658 5.76347 16.7182C5.65391 16.4364 5.52358 16.0128 5.48801 15.2328C5.44953 14.3892 5.44136 14.1362 5.44136 12.0001C5.44136 9.8639 5.44953 9.61096 5.48801 8.76731C5.52361 7.98732 5.65391 7.56376 5.76347 7.28183C5.89172 6.93434 6.09624 6.62001 6.36196 6.36196C6.62001 6.09626 6.93433 5.89177 7.2818 5.76353C7.5637 5.65397 7.98729 5.52364 8.76727 5.48807C9.61087 5.44959 9.86386 5.44143 12 5.44143L11.9999 5.44146ZM12 4C9.82734 4 9.55482 4.00921 8.70167 4.04814C7.85013 4.08701 7.26863 4.22223 6.75977 4.42C6.22597 4.62088 5.74242 4.93577 5.34282 5.34273C4.93578 5.7423 4.62079 6.22586 4.41984 6.75967C4.22223 7.26856 4.08701 7.85007 4.0483 8.7016C4.00921 9.55475 4 9.82729 4 11.9999C4 14.1726 4.00921 14.4451 4.0483 15.2983C4.08717 16.1498 4.22239 16.7314 4.42016 17.2402C4.62104 17.774 4.93593 18.2575 5.34289 18.6571C5.74248 19.0641 6.22603 19.379 6.75983 19.5799C7.26872 19.7777 7.85023 19.9129 8.70173 19.9517C9.55501 19.9907 9.82744 19.9999 12.0001 19.9999C14.1727 19.9999 14.4452 19.9907 15.2984 19.9517C16.15 19.9129 16.7315 19.7777 17.2403 19.5799C17.7718 19.3743 18.2543 19.0601 18.6573 18.6571C19.0601 18.2542 19.3745 17.7716 19.58 17.2402C19.7777 16.7313 19.913 16.1498 19.9519 15.2983C19.9908 14.445 20 14.1726 20 11.9999C20 9.82731 19.9908 9.55475 19.9519 8.7016C19.913 7.85007 19.7777 7.26856 19.58 6.7597C19.3791 6.22591 19.0642 5.74235 18.6573 5.34276C18.2577 4.93573 17.7741 4.62076 17.2402 4.41984C16.7314 4.22223 16.1498 4.08701 15.2983 4.0483C14.4451 4.00921 14.1726 4 11.9999 4H12Z" fill="white"/>
<path d="M12 7.89191C11.1875 7.89191 10.3932 8.13284 9.71765 8.58425C9.04208 9.03564 8.51554 9.67724 8.20461 10.4279C7.89367 11.1786 7.81232 12.0045 7.97083 12.8015C8.12935 13.5983 8.5206 14.3303 9.09512 14.9049C9.66965 15.4794 10.4016 15.8706 11.1985 16.0292C11.9954 16.1876 12.8214 16.1063 13.5721 15.7954C14.3227 15.4844 14.9643 14.9579 15.4157 14.2823C15.8672 13.6067 16.1081 12.8125 16.1081 12C16.1081 10.9105 15.6752 9.86556 14.9048 9.09514C14.1344 8.32472 13.0895 7.89191 12 7.89191ZM12 14.6666C11.4726 14.6666 10.957 14.5102 10.5185 14.2172C10.08 13.9242 9.73819 13.5077 9.53636 13.0205C9.33454 12.5332 9.28174 11.997 9.38463 11.4798C9.48753 10.9625 9.7415 10.4873 10.1144 10.1144C10.4874 9.74146 10.9625 9.48749 11.4798 9.3846C11.9971 9.28172 12.5333 9.33452 13.0205 9.53635C13.5078 9.73818 13.9243 10.08 14.2172 10.5185C14.5102 10.957 14.6666 11.4726 14.6666 12C14.6666 12.7072 14.3857 13.3855 13.8856 13.8856C13.3855 14.3857 12.7072 14.6666 12 14.6666Z" fill="white"/>
<path d="M16.2703 8.68954C16.8004 8.68954 17.2302 8.25975 17.2302 7.72957C17.2302 7.19939 16.8004 6.76959 16.2703 6.76959C15.7401 6.76959 15.3103 7.19939 15.3103 7.72957C15.3103 8.25975 15.7401 8.68954 16.2703 8.68954Z" fill="white"/>
</g>
<defs>
<clipPath id="clip0">
<rect width="16" height="15.9999" fill="white" transform="translate(4 4)"/>
</clipPath>
</defs>
</svg>
