<svg width="24" height="24" viewBox="0 0 24 24" fill="none" xmlns="http://www.w3.org/2000/svg">
<circle cx="12" cy="12" r="12" fill="black"/>
<g clip-path="url(#clip0)">
<path fill-rule="evenodd" clip-rule="evenodd" d="M18.2602 6.34267C18.9456 6.52718 19.4859 7.06754 19.6704 7.75288C20.0131 9.00493 19.9999 11.6145 19.9999 11.6145C19.9999 11.6145 19.9999 14.2108 19.6704 15.4629C19.4859 16.1482 18.9456 16.6886 18.2602 16.8731C17.0082 17.2026 12 17.2026 12 17.2026C12 17.2026 7.00493 17.2026 5.7397 16.8599C5.05436 16.6754 4.514 16.135 4.32949 15.4497C4 14.2108 4 11.6013 4 11.6013C4 11.6013 4 9.00493 4.32949 7.75288C4.514 7.06754 5.06754 6.514 5.7397 6.32949C6.99175 6 12 6 12 6C12 6 17.0082 6 18.2602 6.34267ZM10.4052 9.2026L14.57 11.6013L10.4052 13.9999V9.2026Z" fill="white"/>
</g>
<defs>
<clipPath id="clip0">
<rect width="27.2" height="19.0444" fill="white" transform="translate(4 6) scale(0.588235)"/>
</clipPath>
</defs>
</svg>
